<svg xmlns="http://www.w3.org/2000/svg" version="1.1" xmlns:xlink="http://www.w3.org/1999/xlink" xmlns:svgjs="http://svgjs.dev/svgjs" width="1500" height="200" viewBox="0 0 1500 200"><g transform="matrix(1,0,0,1,-0.9090909090909918,-0.016568615757137195)"><svg viewBox="0 0 396 53" data-background-color="#ffffff" preserveAspectRatio="xMidYMid meet" height="200" width="1500" xmlns="http://www.w3.org/2000/svg" xmlns:xlink="http://www.w3.org/1999/xlink"><g id="tight-bounds" transform="matrix(1,0,0,1,0.2400000000000091,0.004390683175643062)"><svg viewBox="0 0 395.52 52.99121863364869" height="52.99121863364869" width="395.52"><g><svg viewBox="0 0 469.7775785856586 62.94014557043567" height="52.99121863364869" width="395.52"><g transform="matrix(1,0,0,1,74.25757858565859,7.5001795829801665)"><svg viewBox="0 0 395.52 47.939786404475335" height="47.939786404475335" width="395.52"><g id="textblocktransform"><svg viewBox="0 0 395.52 47.939786404475335" height="47.939786404475335" width="395.52" id="textblock"><g><svg viewBox="0 0 395.52 47.939786404475335" height="47.939786404475335" width="395.52"><g transform="matrix(1,0,0,1,0,0)"><svg width="395.52" viewBox="3 -35.35 294.92 35.75" height="47.939786404475335" data-palette-color="#4f46e5"><path d="M26.25-16.15L26.25 0 18.95 0 18.95-15Q18.95-17.2 17.85-18.45 16.75-19.7 15-19.7L15-19.7Q14.25-19.7 13.58-19.48 12.9-19.25 12.1-18.68 11.3-18.1 10.8-16.73 10.3-15.35 10.3-13.4L10.3-13.4 10.3 0 3 0 3-35.35 10.3-35.35 10.3-21.05Q12.25-25.6 17.9-25.6L17.9-25.6Q21.6-25.6 23.93-23.25 26.25-20.9 26.25-16.15L26.25-16.15ZM41.3-5L41.3-5Q42.85-5 43.7-5.95 44.55-6.9 44.55-8.55L44.55-8.55 44.55-10.4 42.2-10.4Q40.35-10.4 39.35-9.6 38.35-8.8 38.35-7.55L38.35-7.55Q38.35-5 41.3-5ZM44.9 0L44.9-3.1Q43.3 0.15 38.6 0.15L38.6 0.15Q34.9 0.15 32.82-1.95 30.75-4.05 30.75-7.2L30.75-7.2Q30.75-10.85 33.42-12.88 36.1-14.9 41.35-14.9L41.35-14.9 44.55-14.9 44.55-16.65Q44.55-19.85 40.3-19.85L40.3-19.85Q36.2-19.85 32.7-17.55L32.7-17.55 32.7-24.1Q35.7-25.8 41.35-25.8L41.35-25.8Q46.75-25.8 49.4-23.48 52.05-21.15 52.05-16.25L52.05-16.25 52.05 0 44.9 0ZM76.75-7.3L76.75-1.2Q73.8 0.4 69.65 0.4L69.65 0.4Q63.95 0.4 60.25-3.23 56.55-6.85 56.55-12.6L56.55-12.6Q56.65-18.3 60.25-22.03 63.84-25.75 70.09-25.75L70.09-25.75Q73.95-25.75 76.75-24.3L76.75-24.3 76.75-18.05Q74.09-19.7 70.84-19.7L70.84-19.7Q67.8-19.7 65.9-17.88 64-16.05 63.95-12.6L63.95-12.6Q64.14-9.25 65.95-7.4 67.75-5.55 70.7-5.55L70.7-5.55Q73.84-5.55 76.75-7.3L76.75-7.3ZM88.54-12.45L88.54 0 81.24 0 81.24-34.5 88.54-34.5 88.54-14 96.54-25.35 104.94-25.35 96.14-13.2 105.09 0 96.64 0 88.54-12.45ZM123.74-8.3L121.54 0 114.04 0 105.89-25.35 113.44-25.35 115.64-17Q116.44-13.85 116.99-11.33 117.54-8.8 117.64-7.85L117.64-7.85 117.79-6.9Q118.14-9.9 120.24-17L120.24-17 122.69-25.35 128.99-25.35 131.39-17Q132.29-13.8 132.89-11.28 133.49-8.75 133.64-7.8L133.64-7.8 133.79-6.9Q134.14-9.85 136.14-17L136.14-17 138.49-25.35 145.69-25.35 137.59 0 130.09 0 127.89-8.3Q127.19-11 126.67-13.35 126.14-15.7 125.99-16.7L125.99-16.7 125.84-17.7Q125.34-14.35 123.74-8.3L123.74-8.3ZM168.84-7.55L168.84-1.45Q166.24 0.25 160.89 0.25L160.89 0.25Q154.64 0.25 151.16-3.38 147.69-7 147.69-12.7L147.69-12.7Q147.69-18.75 151.06-22.18 154.44-25.6 159.39-25.6L159.39-25.6Q164.49-25.6 167.44-22.63 170.39-19.65 170.39-13.75L170.39-13.75Q170.39-12.6 169.99-9.8L169.99-9.8 155.09-9.8Q155.84-7.7 157.69-6.55 159.54-5.4 162.14-5.4L162.14-5.4Q165.99-5.4 168.84-7.55L168.84-7.55ZM159.69-20.05L159.69-20.05Q157.94-20.05 156.59-18.78 155.24-17.5 154.79-15L154.79-15 163.59-15 163.59-15.6Q163.24-20.05 159.69-20.05ZM183.14-35.35L183.14 0 175.84 0 175.84-35.35 183.14-35.35ZM196.93-35.35L196.93 0 189.63 0 189.63-35.35 196.93-35.35ZM226.43-16.45L226.43 0 219.13 0 219.13-15.1Q219.13-17.35 218.08-18.53 217.03-19.7 215.13-19.7L215.13-19.7Q213.13-19.7 211.81-18.13 210.48-16.55 210.48-13.4L210.48-13.4 210.48 0 203.18 0 203.18-25.35 210.48-25.35 210.48-21.05Q211.43-23.15 213.41-24.38 215.38-25.6 218.13-25.6L218.13-25.6Q222.03-25.6 224.23-23.28 226.43-20.95 226.43-16.45L226.43-16.45ZM252.08-7.55L252.08-1.45Q249.48 0.25 244.13 0.25L244.13 0.25Q237.88 0.25 234.4-3.38 230.93-7 230.93-12.7L230.93-12.7Q230.93-18.75 234.3-22.18 237.68-25.6 242.63-25.6L242.63-25.6Q247.73-25.6 250.68-22.63 253.63-19.65 253.63-13.75L253.63-13.75Q253.63-12.6 253.23-9.8L253.23-9.8 238.33-9.8Q239.08-7.7 240.93-6.55 242.78-5.4 245.38-5.4L245.38-5.4Q249.23-5.4 252.08-7.55L252.08-7.55ZM242.93-20.05L242.93-20.05Q241.18-20.05 239.83-18.78 238.48-17.5 238.03-15L238.03-15 246.83-15 246.83-15.6Q246.48-20.05 242.93-20.05ZM276.13-7.65L276.13-7.65Q276.13-3.9 273.43-1.85 270.73 0.2 266.28 0.2L266.28 0.2Q261.68 0.2 258.58-1.35L258.58-1.35 258.58-7.85Q262.03-5.45 265.88-5.45L265.88-5.45Q268.63-5.45 268.63-7.2L268.63-7.2Q268.63-7.65 268.38-8.05 268.13-8.45 267.53-8.8 266.93-9.15 266.43-9.38 265.93-9.6 264.98-10 264.03-10.4 263.53-10.65L263.53-10.65Q258.48-13.05 258.48-17.85L258.48-17.85Q258.48-21.55 261.3-23.6 264.13-25.65 268.33-25.65L268.33-25.65Q272.23-25.65 274.83-24.6L274.83-24.6 274.83-18.35Q272.18-19.9 268.63-19.9L268.63-19.9Q267.33-19.9 266.63-19.38 265.93-18.85 265.93-18.05L265.93-18.05Q265.93-17.6 266.18-17.2 266.43-16.8 267-16.45 267.58-16.1 268.1-15.83 268.63-15.55 269.55-15.15 270.48-14.75 271.03-14.45L271.03-14.45Q273.33-13.25 274.73-11.68 276.13-10.1 276.13-7.65ZM297.92-7.65L297.92-7.65Q297.92-3.9 295.22-1.85 292.52 0.2 288.07 0.2L288.07 0.2Q283.47 0.2 280.37-1.35L280.37-1.35 280.37-7.85Q283.82-5.45 287.67-5.45L287.67-5.45Q290.42-5.45 290.42-7.2L290.42-7.2Q290.42-7.65 290.17-8.05 289.92-8.45 289.32-8.8 288.72-9.15 288.22-9.38 287.72-9.6 286.77-10 285.82-10.4 285.32-10.65L285.32-10.65Q280.27-13.05 280.27-17.85L280.27-17.85Q280.27-21.55 283.1-23.6 285.92-25.65 290.12-25.65L290.12-25.65Q294.02-25.65 296.62-24.6L296.62-24.6 296.62-18.35Q293.97-19.9 290.42-19.9L290.42-19.9Q289.12-19.9 288.42-19.38 287.72-18.85 287.72-18.05L287.72-18.05Q287.72-17.6 287.97-17.2 288.22-16.8 288.8-16.45 289.37-16.1 289.9-15.83 290.42-15.55 291.35-15.15 292.27-14.75 292.82-14.45L292.82-14.45Q295.12-13.25 296.52-11.68 297.92-10.1 297.92-7.65Z" opacity="1" transform="matrix(1,0,0,1,0,0)" fill="#4f46e5" class="wordmark-text-0" data-fill-palette-color="primary" id="text-0"></path></svg></g></svg></g></svg></g></svg></g><g><svg viewBox="0 0 62.94014557043567 62.94014557043567" height="62.94014557043567" width="62.94014557043567"><g><svg xmlns="http://www.w3.org/2000/svg" xmlns:xlink="http://www.w3.org/1999/xlink" version="1.1" x="0" y="0" viewBox="0 0 64 64" style="enable-background:new 0 0 64 64;" xml:space="preserve" height="62.94014557043567" width="62.94014557043567" class="icon-icon-0" data-fill-palette-color="accent" id="icon-0"><path d="M55.98 19.411C55.994 19.272 56 19.137 56 19 56 16.585 54 14.564 52 14.101V14C52 11.243 49.757 9 47 9 46.543 9 46.087 9.066 45.645 9.194A4.97 4.97 0 0 0 41 6C40.183 6 39.376 6.21 38.652 6.602 37.718 5.585 36.412 5 35 5S32.282 5.585 31.348 6.602A4.94 4.94 0 0 0 29 6 4.97 4.97 0 0 0 24.355 9.194 5 5 0 0 0 23 9 5.006 5.006 0 0 0 18.001 14.101 5.01 5.01 0 0 0 14 19C14 19.137 14.006 19.272 14.02 19.411A5.03 5.03 0 0 0 11 24C11 26.757 13.243 29 16 29H37V35.414L45 43.414V64H47V42.586L39 34.586V29H53V64H55V28.899A5.01 5.01 0 0 0 59 24 5.03 5.03 0 0 0 55.98 19.411M54 27H42.92C42.432 23.614 39.519 21 36 21V23A5.01 5.01 0 0 1 40.899 27H22.184A2.995 2.995 0 0 1 25 25V23A5.01 5.01 0 0 0 20.101 27H16C14.346 27 13 25.654 13 24 13 22.592 13.999 21.358 15.376 21.067L15.443 21.053C16.333 21.256 17 22.05 17 23H19C19 21.146 17.726 19.597 16.012 19.146 16.009 19.098 16 19.046 16 19 16 17.346 17.346 16 18.938 15.997L19 16A3 3 0 0 1 21.944 18.45 3.96 3.96 0 0 0 21 21H23C23 19.897 23.897 19 25 19V17C24.53 17 24.085 17.096 23.666 17.246A5 5 0 0 0 20.008 14.102C20.007 14.069 20 14.033 20 14 20 12.346 21.346 11 23 11 23.347 11 23.682 11.085 24.011 11.209 24.122 14.42 26.762 17 30 17V15A4.003 4.003 0 0 1 26.001 11.014L26.036 10.683A2.986 2.986 0 0 1 29 8C29.385 8 29.716 8.082 30.01 8.193 30.113 11.412 32.757 14 36 14V12C34.133 12 32.574 10.71 32.135 8.977L32.434 8.474C32.984 7.552 33.944 7 35 7S37.016 7.552 37.566 8.475L38.17 9.49 39.071 8.725A2.97 2.97 0 0 1 41 8 2.98 2.98 0 0 1 43.942 10.576C43.652 13.059 41.56 15 39 15V17C42.43 17 45.286 14.518 45.881 11.257 46.243 11.104 46.614 11 47 11 48.654 11 50 12.346 50 14 50 14.026 49.995 14.055 49.994 14.081A7.01 7.01 0 0 0 44.239 19.217 3.9 3.9 0 0 0 43 19V21C44.103 21 45 21.897 45 23H47C47 22.026 46.636 21.144 46.056 20.45A4.98 4.98 0 0 1 50.846 16.016L50.894 16.014C50.951 16.012 51.006 16.005 51 16 52.654 16 54 17.346 54 19 54 19.033 53.993 19.069 53.991 19.102A5.01 5.01 0 0 0 50 24H52C52 22.507 53.1 21.275 54.53 21.048L54.624 21.068A3.01 3.01 0 0 1 57 24C57 25.654 55.654 27 54 27" fill="#4f46e5" data-fill-palette-color="accent"></path><path d="M35 0C19.009 0 6 13.01 6 29V44H12V57H31V64H33V57H35V55H14V42H8V29C8 14.112 20.112 2 35 2S62 14.112 62 29V64H64V29C64 13.01 50.991 0 35 0" fill="#4f46e5" data-fill-palette-color="accent"></path><path d="M32.441 18.213C29.887 18.902 28 21.232 28 24H30C30 21.794 31.794 20 34 20 34 18.897 34.897 18 36 18V16C34.44 16 33.1 16.906 32.441 18.213" fill="#4f46e5" data-fill-palette-color="accent"></path><polygon points="10,6 12,6 12,4 14,4 14,2 12,2 12,0 10,0 10,2 8,2 8,4 10,4 " fill="#4f46e5" data-fill-palette-color="accent"></polygon><polygon points="6,7 6,5 4,5 4,3 2,3 2,5 0,5 0,7 2,7 2,9 4,9 4,7 " fill="#4f46e5" data-fill-palette-color="accent"></polygon><rect x="49" y="31" width="2" height="2" fill="#4f46e5" data-fill-palette-color="accent"></rect><rect x="45" y="31" width="2" height="2" fill="#4f46e5" data-fill-palette-color="accent"></rect><rect x="41" y="31" width="2" height="2" fill="#4f46e5" data-fill-palette-color="accent"></rect><rect x="49" y="35" width="2" height="2" fill="#4f46e5" data-fill-palette-color="accent"></rect><rect x="45" y="35" width="2" height="2" fill="#4f46e5" data-fill-palette-color="accent"></rect><rect x="49" y="39" width="2" height="2" fill="#4f46e5" data-fill-palette-color="accent"></rect></svg></g></svg></g></svg></g><defs></defs></svg><rect width="395.52" height="52.99121863364869" fill="none" stroke="none" visibility="hidden"></rect></g></svg></g></svg>